<?xml version="1.0" encoding="utf-8"?>
<!-- Generator: Adobe Illustrator 18.1.1, SVG Export Plug-In . SVG Version: 6.00 Build 0)  -->
<svg version="1.1" id="Red_Flag" xmlns="http://www.w3.org/2000/svg" xmlns:xlink="http://www.w3.org/1999/xlink" x="0px" y="0px"
	 viewBox="0 0 128 128" enable-background="new 0 0 128 128" xml:space="preserve">
<circle fill="#FFB115" cx="64" cy="64" r="64"/>
<path fill="#D62121" d="M112.668,34.252H65.986V91.44c0,2.946,2.388,5.333,5.333,5.333h41.349l-10.277-31.261L112.668,34.252z"/>
<path fill="#FF4E4A" d="M33.879,26.684h40.074c2.946,0,5.333,2.388,5.333,5.333v55.21H33.879V26.684z"/>
<path opacity="0.3" fill="#0B2026" d="M65.986,87.227v4.213c0,2.946,2.388,5.333,5.333,5.333h1.696l6.272-9.547H65.986z"/>
<rect x="33.879" y="26.684" opacity="0.2" fill="#0B2026" width="4.547" height="60.543"/>
<path fill="#C9E6F4" d="M29.744,20.262c-2.586,0-4.701,2.116-4.701,4.701v89.799c2.943,2.262,6.087,4.27,9.403,6V24.964
	C34.445,22.378,32.329,20.262,29.744,20.262z"/>
<path fill="#FFFFFF" d="M25.042,24.964v89.799c0.916,0.704,1.848,1.388,2.802,2.043V24.964c0-2.095,1.398-3.86,3.3-4.463
	c-0.446-0.141-0.91-0.239-1.401-0.239C27.158,20.262,25.042,22.378,25.042,24.964z"/>
</svg>
